<svg width="1517" height="620" viewBox="0 0 1517 620" fill="none" xmlns="http://www.w3.org/2000/svg">
<path d="M282.24 134.856V294H250.32V190.488L207.684 294H183.516L140.652 190.488V294H108.732V134.856H144.984L195.6 253.188L246.216 134.856H282.24ZM434.638 167.688L356.434 353.736H322.462L349.822 290.808L299.206 167.688H335.002L367.606 255.924L400.666 167.688H434.638ZM561.805 134.856C578.525 134.856 593.193 138.124 605.809 144.66C618.577 151.196 628.381 160.544 635.221 172.704C642.213 184.712 645.709 198.696 645.709 214.656C645.709 230.616 642.213 244.6 635.221 256.608C628.381 268.464 618.577 277.66 605.809 284.196C593.193 290.732 578.525 294 561.805 294H506.173V134.856H561.805ZM560.665 266.868C577.385 266.868 590.305 262.308 599.425 253.188C608.545 244.068 613.105 231.224 613.105 214.656C613.105 198.088 608.545 185.168 599.425 175.896C590.305 166.472 577.385 161.76 560.665 161.76H538.093V266.868H560.665ZM787.023 228.108C787.023 232.668 786.719 236.772 786.111 240.42H693.771C694.531 249.54 697.723 256.684 703.347 261.852C708.971 267.02 715.887 269.604 724.095 269.604C735.951 269.604 744.387 264.512 749.403 254.328H783.831C780.183 266.488 773.191 276.52 762.855 284.424C752.519 292.176 739.827 296.052 724.779 296.052C712.619 296.052 701.675 293.392 691.947 288.072C682.371 282.6 674.847 274.924 669.375 265.044C664.055 255.164 661.395 243.764 661.395 230.844C661.395 217.772 664.055 206.296 669.375 196.416C674.695 186.536 682.143 178.936 691.719 173.616C701.295 168.296 712.315 165.636 724.779 165.636C736.787 165.636 747.503 168.22 756.927 173.388C766.503 178.556 773.875 185.928 779.043 195.504C784.363 204.928 787.023 215.796 787.023 228.108ZM753.963 218.988C753.811 210.78 750.847 204.244 745.071 199.38C739.295 194.364 732.227 191.856 723.867 191.856C715.963 191.856 709.275 194.288 703.803 199.152C698.483 203.864 695.215 210.476 693.999 218.988H753.963ZM858.658 296.052C848.322 296.052 839.05 294.228 830.842 290.58C822.634 286.78 816.098 281.688 811.234 275.304C806.522 268.92 803.938 261.852 803.482 254.1H835.63C836.238 258.964 838.594 262.992 842.698 266.184C846.954 269.376 852.198 270.972 858.43 270.972C864.51 270.972 869.222 269.756 872.566 267.324C876.062 264.892 877.81 261.776 877.81 257.976C877.81 253.872 875.682 250.832 871.426 248.856C867.322 246.728 860.71 244.448 851.59 242.016C842.166 239.736 834.414 237.38 828.334 234.948C822.406 232.516 817.238 228.792 812.83 223.776C808.574 218.76 806.446 211.996 806.446 203.484C806.446 196.492 808.422 190.108 812.374 184.332C816.478 178.556 822.254 173.996 829.702 170.652C837.302 167.308 846.194 165.636 856.378 165.636C871.426 165.636 883.434 169.436 892.402 177.036C901.37 184.484 906.31 194.592 907.222 207.36H876.67C876.214 202.344 874.086 198.392 870.286 195.504C866.638 192.464 861.698 190.944 855.466 190.944C849.69 190.944 845.206 192.008 842.014 194.136C838.974 196.264 837.454 199.228 837.454 203.028C837.454 207.284 839.582 210.552 843.838 212.832C848.094 214.96 854.706 217.164 863.674 219.444C872.794 221.724 880.318 224.08 886.246 226.512C892.174 228.944 897.266 232.744 901.522 237.912C905.93 242.928 908.21 249.616 908.362 257.976C908.362 265.272 906.31 271.808 902.206 277.584C898.254 283.36 892.478 287.92 884.878 291.264C877.43 294.456 868.69 296.052 858.658 296.052ZM950.752 152.64C945.128 152.64 940.416 150.892 936.616 147.396C932.968 143.748 931.144 139.264 931.144 133.944C931.144 128.624 932.968 124.216 936.616 120.72C940.416 117.072 945.128 115.248 950.752 115.248C956.376 115.248 961.012 117.072 964.66 120.72C968.46 124.216 970.36 128.624 970.36 133.944C970.36 139.264 968.46 143.748 964.66 147.396C961.012 150.892 956.376 152.64 950.752 152.64ZM966.484 167.688V294H934.564V167.688H966.484ZM1029.94 187.296C1034.05 180.608 1039.37 175.364 1045.9 171.564C1052.59 167.764 1060.19 165.864 1068.7 165.864V199.38H1060.27C1050.23 199.38 1042.63 201.736 1037.47 206.448C1032.45 211.16 1029.94 219.368 1029.94 231.072V294H998.021V167.688H1029.94V187.296ZM1207.62 228.108C1207.62 232.668 1207.32 236.772 1206.71 240.42H1114.37C1115.13 249.54 1118.32 256.684 1123.94 261.852C1129.57 267.02 1136.48 269.604 1144.69 269.604C1156.55 269.604 1164.98 264.512 1170 254.328H1204.43C1200.78 266.488 1193.79 276.52 1183.45 284.424C1173.12 292.176 1160.42 296.052 1145.38 296.052C1133.22 296.052 1122.27 293.392 1112.54 288.072C1102.97 282.6 1095.44 274.924 1089.97 265.044C1084.65 255.164 1081.99 243.764 1081.99 230.844C1081.99 217.772 1084.65 206.296 1089.97 196.416C1095.29 186.536 1102.74 178.936 1112.32 173.616C1121.89 168.296 1132.91 165.636 1145.38 165.636C1157.38 165.636 1168.1 168.22 1177.52 173.388C1187.1 178.556 1194.47 185.928 1199.64 195.504C1204.96 204.928 1207.62 215.796 1207.62 228.108ZM1174.56 218.988C1174.41 210.78 1171.44 204.244 1165.67 199.38C1159.89 194.364 1152.82 191.856 1144.46 191.856C1136.56 191.856 1129.87 194.288 1124.4 199.152C1119.08 203.864 1115.81 210.476 1114.6 218.988H1174.56ZM1222.71 230.388C1222.71 217.62 1225.22 206.296 1230.24 196.416C1235.4 186.536 1242.4 178.936 1251.21 173.616C1260.03 168.296 1269.83 165.636 1280.62 165.636C1288.83 165.636 1296.66 167.46 1304.11 171.108C1311.56 174.604 1317.48 179.316 1321.89 185.244V125.28H1354.27V294H1321.89V275.304C1317.94 281.536 1312.39 286.552 1305.25 290.352C1298.1 294.152 1289.82 296.052 1280.4 296.052C1269.76 296.052 1260.03 293.316 1251.21 287.844C1242.4 282.372 1235.4 274.696 1230.24 264.816C1225.22 254.784 1222.71 243.308 1222.71 230.388ZM1322.12 230.844C1322.12 223.092 1320.6 216.48 1317.56 211.008C1314.52 205.384 1310.42 201.128 1305.25 198.24C1300.08 195.2 1294.53 193.68 1288.6 193.68C1282.68 193.68 1277.2 195.124 1272.19 198.012C1267.17 200.9 1263.07 205.156 1259.88 210.78C1256.84 216.252 1255.32 222.788 1255.32 230.388C1255.32 237.988 1256.84 244.676 1259.88 250.452C1263.07 256.076 1267.17 260.408 1272.19 263.448C1277.36 266.488 1282.83 268.008 1288.6 268.008C1294.53 268.008 1300.08 266.564 1305.25 263.676C1310.42 260.636 1314.52 256.38 1317.56 250.908C1320.6 245.284 1322.12 238.596 1322.12 230.844Z" fill="#9B8C35"/>
<path d="M442.196 326.856V425.352C442.196 436.144 445.008 444.428 450.632 450.204C456.256 455.828 464.16 458.64 474.344 458.64C484.68 458.64 492.66 455.828 498.284 450.204C503.908 444.428 506.72 436.144 506.72 425.352V326.856H538.868V425.124C538.868 438.652 535.904 450.128 529.976 459.552C524.2 468.824 516.372 475.816 506.492 480.528C496.764 485.24 485.896 487.596 473.888 487.596C462.032 487.596 451.24 485.24 441.512 480.528C431.936 475.816 424.336 468.824 418.712 459.552C413.088 450.128 410.276 438.652 410.276 425.124V326.856H442.196ZM606.873 385.908V447.012C606.873 451.268 607.861 454.384 609.837 456.36C611.965 458.184 615.461 459.096 620.325 459.096H635.145V486H615.081C588.177 486 574.725 472.928 574.725 446.784V385.908H559.677V359.688H574.725V328.452H606.873V359.688H635.145V385.908H606.873ZM714.191 488.052C702.031 488.052 691.087 485.392 681.359 480.072C671.631 474.6 663.955 466.924 658.331 457.044C652.859 447.164 650.123 435.764 650.123 422.844C650.123 409.924 652.935 398.524 658.559 388.644C664.335 378.764 672.163 371.164 682.043 365.844C691.923 360.372 702.943 357.636 715.103 357.636C727.263 357.636 738.283 360.372 748.163 365.844C758.043 371.164 765.795 378.764 771.419 388.644C777.195 398.524 780.083 409.924 780.083 422.844C780.083 435.764 777.119 447.164 771.191 457.044C765.415 466.924 757.511 474.6 747.479 480.072C737.599 485.392 726.503 488.052 714.191 488.052ZM714.191 460.236C719.967 460.236 725.363 458.868 730.379 456.132C735.547 453.244 739.651 448.988 742.691 443.364C745.731 437.74 747.251 430.9 747.251 422.844C747.251 410.836 744.059 401.64 737.675 395.256C731.443 388.72 723.767 385.452 714.647 385.452C705.527 385.452 697.851 388.72 691.619 395.256C685.539 401.64 682.499 410.836 682.499 422.844C682.499 434.852 685.463 444.124 691.391 450.66C697.471 457.044 705.071 460.236 714.191 460.236ZM835.418 377.928C839.522 372.152 845.146 367.364 852.29 363.564C859.586 359.612 867.87 357.636 877.142 357.636C887.934 357.636 897.662 360.296 906.326 365.616C915.142 370.936 922.058 378.536 927.074 388.416C932.242 398.144 934.826 409.468 934.826 422.388C934.826 435.308 932.242 446.784 927.074 456.816C922.058 466.696 915.142 474.372 906.326 479.844C897.662 485.316 887.934 488.052 877.142 488.052C867.87 488.052 859.662 486.152 852.518 482.352C845.526 478.552 839.826 473.764 835.418 467.988V546.192H803.498V359.688H835.418V377.928ZM902.222 422.388C902.222 414.788 900.626 408.252 897.434 402.78C894.394 397.156 890.29 392.9 885.122 390.012C880.106 387.124 874.634 385.68 868.706 385.68C862.93 385.68 857.458 387.2 852.29 390.24C847.274 393.128 843.17 397.384 839.978 403.008C836.938 408.632 835.418 415.244 835.418 422.844C835.418 430.444 836.938 437.056 839.978 442.68C843.17 448.304 847.274 452.636 852.29 455.676C857.458 458.564 862.93 460.008 868.706 460.008C874.634 460.008 880.106 458.488 885.122 455.448C890.29 452.408 894.394 448.076 897.434 442.452C900.626 436.828 902.222 430.14 902.222 422.388ZM974.209 344.64C968.585 344.64 963.873 342.892 960.073 339.396C956.425 335.748 954.601 331.264 954.601 325.944C954.601 320.624 956.425 316.216 960.073 312.72C963.873 309.072 968.585 307.248 974.209 307.248C979.833 307.248 984.469 309.072 988.117 312.72C991.917 316.216 993.817 320.624 993.817 325.944C993.817 331.264 991.917 335.748 988.117 339.396C984.469 342.892 979.833 344.64 974.209 344.64ZM989.941 359.688V486H958.021V359.688H989.941ZM1013.27 422.388C1013.27 409.62 1015.78 398.296 1020.79 388.416C1025.96 378.536 1032.88 370.936 1041.54 365.616C1050.36 360.296 1060.16 357.636 1070.95 357.636C1080.38 357.636 1088.59 359.536 1095.58 363.336C1102.72 367.136 1108.42 371.924 1112.68 377.7V359.688H1144.83V486H1112.68V467.532C1108.57 473.46 1102.87 478.4 1095.58 482.352C1088.43 486.152 1080.15 488.052 1070.73 488.052C1060.09 488.052 1050.36 485.316 1041.54 479.844C1032.88 474.372 1025.96 466.696 1020.79 456.816C1015.78 446.784 1013.27 435.308 1013.27 422.388ZM1112.68 422.844C1112.68 415.092 1111.16 408.48 1108.12 403.008C1105.08 397.384 1100.97 393.128 1095.81 390.24C1090.64 387.2 1085.09 385.68 1079.16 385.68C1073.23 385.68 1067.76 387.124 1062.75 390.012C1057.73 392.9 1053.63 397.156 1050.43 402.78C1047.39 408.252 1045.87 414.788 1045.87 422.388C1045.87 429.988 1047.39 436.676 1050.43 442.452C1053.63 448.076 1057.73 452.408 1062.75 455.448C1067.91 458.488 1073.39 460.008 1079.16 460.008C1085.09 460.008 1090.64 458.564 1095.81 455.676C1100.97 452.636 1105.08 448.38 1108.12 442.908C1111.16 437.284 1112.68 430.596 1112.68 422.844Z" fill="#9B8C35"/>
</svg>
