<svg width="1517" height="620" viewBox="0 0 1517 620" fill="none" xmlns="http://www.w3.org/2000/svg">
<path d="M288.396 133.944V294H249.408V198.012L213.612 294H182.148L146.124 197.784V294H107.136V133.944H153.192L198.108 244.752L242.568 133.944H288.396ZM446.393 166.776L366.593 354.42H324.641L353.825 289.668L302.069 166.776H345.617L375.029 246.348L404.213 166.776H446.393ZM568.772 133.944C585.644 133.944 600.388 137.288 613.004 143.976C625.62 150.664 635.348 160.088 642.188 172.248C649.18 184.256 652.676 198.164 652.676 213.972C652.676 229.628 649.18 243.536 642.188 255.696C635.348 267.856 625.544 277.28 612.776 283.968C600.16 290.656 585.492 294 568.772 294H508.808V133.944H568.772ZM566.264 260.256C581.008 260.256 592.484 256.228 600.692 248.172C608.9 240.116 613.004 228.716 613.004 213.972C613.004 199.228 608.9 187.752 600.692 179.544C592.484 171.336 581.008 167.232 566.264 167.232H547.796V260.256H566.264ZM794.392 228.336C794.392 231.984 794.164 235.784 793.708 239.736H705.472C706.08 247.64 708.588 253.72 712.996 257.976C717.556 262.08 723.104 264.132 729.64 264.132C739.368 264.132 746.132 260.028 749.932 251.82H791.428C789.3 260.18 785.424 267.704 779.8 274.392C774.328 281.08 767.412 286.324 759.052 290.124C750.692 293.924 741.344 295.824 731.008 295.824C718.544 295.824 707.448 293.164 697.72 287.844C687.992 282.524 680.392 274.924 674.92 265.044C669.448 255.164 666.712 243.612 666.712 230.388C666.712 217.164 669.372 205.612 674.692 195.732C680.164 185.852 687.764 178.252 697.492 172.932C707.22 167.612 718.392 164.952 731.008 164.952C743.32 164.952 754.264 167.536 763.84 172.704C773.416 177.872 780.864 185.244 786.184 194.82C791.656 204.396 794.392 215.568 794.392 228.336ZM754.492 218.076C754.492 211.388 752.212 206.068 747.652 202.116C743.092 198.164 737.392 196.188 730.552 196.188C724.016 196.188 718.468 198.088 713.908 201.888C709.5 205.688 706.764 211.084 705.7 218.076H754.492ZM866.716 295.824C855.62 295.824 845.74 293.924 837.076 290.124C828.412 286.324 821.572 281.156 816.556 274.62C811.54 267.932 808.728 260.484 808.12 252.276H846.652C847.108 256.684 849.16 260.256 852.808 262.992C856.456 265.728 860.94 267.096 866.26 267.096C871.124 267.096 874.848 266.184 877.432 264.36C880.168 262.384 881.536 259.876 881.536 256.836C881.536 253.188 879.636 250.528 875.836 248.856C872.036 247.032 865.88 245.056 857.368 242.928C848.248 240.8 840.648 238.596 834.568 236.316C828.488 233.884 823.244 230.16 818.836 225.144C814.428 219.976 812.224 213.06 812.224 204.396C812.224 197.1 814.2 190.488 818.152 184.56C822.256 178.48 828.184 173.692 835.936 170.196C843.84 166.7 853.188 164.952 863.98 164.952C879.94 164.952 892.48 168.904 901.6 176.808C910.872 184.712 916.192 195.2 917.56 208.272H881.536C880.928 203.864 878.952 200.368 875.608 197.784C872.416 195.2 868.16 193.908 862.84 193.908C858.28 193.908 854.784 194.82 852.352 196.644C849.92 198.316 848.704 200.672 848.704 203.712C848.704 207.36 850.604 210.096 854.404 211.92C858.356 213.744 864.436 215.568 872.644 217.392C882.068 219.824 889.744 222.256 895.672 224.688C901.6 226.968 906.768 230.768 911.176 236.088C915.736 241.256 918.092 248.248 918.244 257.064C918.244 264.512 916.116 271.2 911.86 277.128C907.756 282.904 901.752 287.464 893.848 290.808C886.096 294.152 877.052 295.824 866.716 295.824ZM961.705 153.552C954.865 153.552 949.241 151.576 944.833 147.624C940.577 143.52 938.449 138.504 938.449 132.576C938.449 126.496 940.577 121.48 944.833 117.528C949.241 113.424 954.865 111.372 961.705 111.372C968.393 111.372 973.865 113.424 978.121 117.528C982.529 121.48 984.733 126.496 984.733 132.576C984.733 138.504 982.529 143.52 978.121 147.624C973.865 151.576 968.393 153.552 961.705 153.552ZM981.085 166.776V294H942.097V166.776H981.085ZM1048.33 187.98C1052.89 180.988 1058.59 175.516 1065.43 171.564C1072.27 167.46 1079.87 165.408 1088.23 165.408V206.676H1077.51C1067.78 206.676 1060.49 208.804 1055.62 213.06C1050.76 217.164 1048.33 224.46 1048.33 234.948V294H1009.34V166.776H1048.33V187.98ZM1226.79 228.336C1226.79 231.984 1226.56 235.784 1226.11 239.736H1137.87C1138.48 247.64 1140.99 253.72 1145.39 257.976C1149.95 262.08 1155.5 264.132 1162.04 264.132C1171.77 264.132 1178.53 260.028 1182.33 251.82H1223.83C1221.7 260.18 1217.82 267.704 1212.2 274.392C1206.73 281.08 1199.81 286.324 1191.45 290.124C1183.09 293.924 1173.74 295.824 1163.41 295.824C1150.94 295.824 1139.85 293.164 1130.12 287.844C1120.39 282.524 1112.79 274.924 1107.32 265.044C1101.85 255.164 1099.11 243.612 1099.11 230.388C1099.11 217.164 1101.77 205.612 1107.09 195.732C1112.56 185.852 1120.16 178.252 1129.89 172.932C1139.62 167.612 1150.79 164.952 1163.41 164.952C1175.72 164.952 1186.66 167.536 1196.24 172.704C1205.81 177.872 1213.26 185.244 1218.58 194.82C1224.05 204.396 1226.79 215.568 1226.79 228.336ZM1186.89 218.076C1186.89 211.388 1184.61 206.068 1180.05 202.116C1175.49 198.164 1169.79 196.188 1162.95 196.188C1156.41 196.188 1150.87 198.088 1146.31 201.888C1141.9 205.688 1139.16 211.084 1138.1 218.076H1186.89ZM1239.61 230.16C1239.61 217.088 1242.04 205.612 1246.9 195.732C1251.92 185.852 1258.68 178.252 1267.19 172.932C1275.71 167.612 1285.21 164.952 1295.69 164.952C1304.05 164.952 1311.65 166.7 1318.49 170.196C1325.49 173.692 1330.96 178.404 1334.91 184.332V125.28H1373.9V294H1334.91V275.76C1331.26 281.84 1326.02 286.704 1319.18 290.352C1312.49 294 1304.66 295.824 1295.69 295.824C1285.21 295.824 1275.71 293.164 1267.19 287.844C1258.68 282.372 1251.92 274.696 1246.9 264.816C1242.04 254.784 1239.61 243.232 1239.61 230.16ZM1334.91 230.388C1334.91 220.66 1332.17 212.984 1326.7 207.36C1321.38 201.736 1314.85 198.924 1307.09 198.924C1299.34 198.924 1292.73 201.736 1287.26 207.36C1281.94 212.832 1279.28 220.432 1279.28 230.16C1279.28 239.888 1281.94 247.64 1287.26 253.416C1292.73 259.04 1299.34 261.852 1307.09 261.852C1314.85 261.852 1321.38 259.04 1326.7 253.416C1332.17 247.792 1334.91 240.116 1334.91 230.388Z" fill="#9B8C35"/>
<path d="M452.44 330.944V426.704C452.44 436.28 454.796 443.652 459.508 448.82C464.22 453.988 471.136 456.572 480.256 456.572C489.376 456.572 496.368 453.988 501.232 448.82C506.096 443.652 508.528 436.28 508.528 426.704V330.944H547.516V426.476C547.516 440.764 544.476 452.848 538.396 462.728C532.316 472.608 524.108 480.056 513.772 485.072C503.588 490.088 492.188 492.596 479.572 492.596C466.956 492.596 455.632 490.164 445.6 485.3C435.72 480.284 427.892 472.836 422.116 462.956C416.34 452.924 413.452 440.764 413.452 426.476V330.944H452.44ZM645.802 457.94V491H625.966C611.83 491 600.81 487.58 592.906 480.74C585.002 473.748 581.05 462.424 581.05 446.768V396.152H565.546V363.776H581.05V332.768H620.038V363.776H645.574V396.152H620.038V447.224C620.038 451.024 620.95 453.76 622.774 455.432C624.598 457.104 627.638 457.94 631.894 457.94H645.802ZM725.431 492.824C712.967 492.824 701.719 490.164 691.687 484.844C681.807 479.524 673.979 471.924 668.203 462.044C662.579 452.164 659.767 440.612 659.767 427.388C659.767 414.316 662.655 402.84 668.431 392.96C674.207 382.928 682.111 375.252 692.143 369.932C702.175 364.612 713.423 361.952 725.887 361.952C738.351 361.952 749.599 364.612 759.631 369.932C769.663 375.252 777.567 382.928 783.343 392.96C789.119 402.84 792.007 414.316 792.007 427.388C792.007 440.46 789.043 452.012 783.115 462.044C777.339 471.924 769.359 479.524 759.175 484.844C749.143 490.164 737.895 492.824 725.431 492.824ZM725.431 459.08C732.879 459.08 739.187 456.344 744.355 450.872C749.675 445.4 752.335 437.572 752.335 427.388C752.335 417.204 749.751 409.376 744.583 403.904C739.567 398.432 733.335 395.696 725.887 395.696C718.287 395.696 711.979 398.432 706.963 403.904C701.947 409.224 699.439 417.052 699.439 427.388C699.439 437.572 701.871 445.4 706.735 450.872C711.751 456.344 717.983 459.08 725.431 459.08ZM851.679 381.788C855.479 375.86 860.723 371.072 867.411 367.424C874.099 363.776 881.927 361.952 890.895 361.952C901.383 361.952 910.883 364.612 919.395 369.932C927.907 375.252 934.595 382.852 939.459 392.732C944.475 402.612 946.983 414.088 946.983 427.16C946.983 440.232 944.475 451.784 939.459 461.816C934.595 471.696 927.907 479.372 919.395 484.844C910.883 490.164 901.383 492.824 890.895 492.824C882.079 492.824 874.251 491 867.411 487.352C860.723 483.704 855.479 478.992 851.679 473.216V551.648H812.691V363.776H851.679V381.788ZM907.311 427.16C907.311 417.432 904.575 409.832 899.103 404.36C893.783 398.736 887.171 395.924 879.267 395.924C871.515 395.924 864.903 398.736 859.431 404.36C854.111 409.984 851.451 417.66 851.451 427.388C851.451 437.116 854.111 444.792 859.431 450.416C864.903 456.04 871.515 458.852 879.267 458.852C887.019 458.852 893.631 456.04 899.103 450.416C904.575 444.64 907.311 436.888 907.311 427.16ZM987.045 350.552C980.205 350.552 974.581 348.576 970.173 344.624C965.917 340.52 963.789 335.504 963.789 329.576C963.789 323.496 965.917 318.48 970.173 314.528C974.581 310.424 980.205 308.372 987.045 308.372C993.733 308.372 999.205 310.424 1003.46 314.528C1007.87 318.48 1010.07 323.496 1010.07 329.576C1010.07 335.504 1007.87 340.52 1003.46 344.624C999.205 348.576 993.733 350.552 987.045 350.552ZM1006.42 363.776V491H967.437V363.776H1006.42ZM1026.93 427.16C1026.93 414.088 1029.36 402.612 1034.22 392.732C1039.24 382.852 1046 375.252 1054.51 369.932C1063.03 364.612 1072.53 361.952 1083.01 361.952C1091.98 361.952 1099.81 363.776 1106.5 367.424C1113.34 371.072 1118.58 375.86 1122.23 381.788V363.776H1161.22V491H1122.23V472.988C1118.43 478.916 1113.11 483.704 1106.27 487.352C1099.58 491 1091.75 492.824 1082.79 492.824C1072.45 492.824 1063.03 490.164 1054.51 484.844C1046 479.372 1039.24 471.696 1034.22 461.816C1029.36 451.784 1026.93 440.232 1026.93 427.16ZM1122.23 427.388C1122.23 417.66 1119.49 409.984 1114.02 404.36C1108.7 398.736 1102.17 395.924 1094.41 395.924C1086.66 395.924 1080.05 398.736 1074.58 404.36C1069.26 409.832 1066.6 417.432 1066.6 427.16C1066.6 436.888 1069.26 444.64 1074.58 450.416C1080.05 456.04 1086.66 458.852 1094.41 458.852C1102.17 458.852 1108.7 456.04 1114.02 450.416C1119.49 444.792 1122.23 437.116 1122.23 427.388Z" fill="#9B8C35"/>
</svg>
